<svg xmlns="http://www.w3.org/2000/svg" viewBox="0 0 64 64" style="enable-background:new 0 0 64 64" xml:space="preserve"><path style="fill:#fff" d="M64 32c0 4.038-.751 7.901-2.118 11.456C57.28 55.471 45.632 64 32 64 18.362 64 6.72 55.471 2.112 43.456A31.851 31.851 0 0 1 0 32c0-4.09.768-8 2.164-11.596C6.807 8.465 18.415 0 32 0c13.58 0 25.187 8.465 29.83 20.404A31.85 31.85 0 0 1 64 32z"/><path style="fill:#13139e" d="M31.997 41.305c5.178 0 9.375-4.246 9.375-9.484s-4.197-9.484-9.375-9.484-9.375 4.246-9.375 9.484 4.198 9.484 9.375 9.484zm-7.41-5.921a.429.429 0 0 0 .22-.553.42.42 0 0 0-.541-.234 8.29 8.29 0 0 1-.192-.628l4.827-1.014 1.536-.623c.027.085.061.166.101.244l-1.522.659-4.121 2.735a8.368 8.368 0 0 1-.308-.586zm2.755 3.269a.43.43 0 0 0-.084-.588.417.417 0 0 0-.582.069 8.738 8.738 0 0 1-.479-.444 7.907 7.907 0 0 1-.443-.489.428.428 0 0 0 .068-.589.417.417 0 0 0-.581-.085 8.342 8.342 0 0 1-.347-.556l4.402-2.243 1.325-1.004c.048.074.101.144.16.209l-1.302 1.035-3.281 3.722 3.679-3.319 1.023-1.318c.065.059.133.113.206.161l-.993 1.34-2.217 4.453a8.389 8.389 0 0 1-.554-.354zm1.675.439a.419.419 0 0 0-.546.222 8.099 8.099 0 0 1-.574-.308l2.704-4.169.651-1.54c.077.04.157.074.241.102l-.616 1.554-1.002 4.883a7.835 7.835 0 0 1-.626-.196.43.43 0 0 0-.232-.548zm3.993.534a.426.426 0 0 0-.364.465c-.214.017-.43.028-.649.028-.221 0-.439-.011-.655-.029a.426.426 0 0 0-.364-.466.423.423 0 0 0-.471.355 8.325 8.325 0 0 1-.634-.144l1.545-4.735.235-1.657c.084.018.171.028.259.033l-.197 1.664.281 4.979.281-4.979-.197-1.664c.088-.005.175-.015.259-.033l.235 1.657 1.546 4.736a8.02 8.02 0 0 1-.64.145.421.421 0 0 0-.47-.355zm2.509-.309a.42.42 0 0 0-.547-.222.427.427 0 0 0-.231.547c-.203.073-.41.138-.621.194l-1.002-4.883-.616-1.553c.084-.027.164-.062.241-.102l.651 1.54 2.704 4.169c-.189.11-.381.215-.579.31zm3.231-2.786a.417.417 0 0 0-.581.085.43.43 0 0 0 .068.589 8.4 8.4 0 0 1-.439.484 8.908 8.908 0 0 1-.483.449.418.418 0 0 0-.583-.069.43.43 0 0 0-.084.588 8.507 8.507 0 0 1-.549.351l-2.217-4.453-.993-1.34c.073-.048.142-.102.206-.161l1.023 1.318 3.679 3.319-3.281-3.722-1.302-1.035c.058-.065.112-.135.16-.209l1.325 1.004L39.1 35.97a8.091 8.091 0 0 1-.35.561zm.435-1.695a.429.429 0 0 0 .219.553 8.898 8.898 0 0 1-.304.581l-4.121-2.735-1.522-.659c.039-.078.074-.159.101-.244l1.536.623 4.827 1.014a8.009 8.009 0 0 1-.194.634.42.42 0 0 0-.542.233zm.987-3.671c.017.217.028.435.028.657 0 .223-.011.444-.028.663a.426.426 0 0 0-.109.844 8.388 8.388 0 0 1-.142.641l-4.681-1.563-1.638-.238c.018-.085.028-.173.032-.262l1.645.2 4.922-.284-4.922-.285-1.645.2a1.617 1.617 0 0 0-.032-.262l1.638-.238 4.681-1.563c.056.213.104.428.143.647a.426.426 0 0 0 .108.843zm-.765-2.906a.429.429 0 0 0-.22.553.42.42 0 0 0 .541.234c.072.206.136.415.192.628l-4.827 1.014-1.536.623a1.628 1.628 0 0 0-.101-.244l1.522-.659 4.121-2.735c.111.191.214.386.308.586zm-2.754-3.269a.43.43 0 0 0 .084.588.417.417 0 0 0 .582-.069c.165.142.325.29.479.444.155.156.301.32.443.489a.428.428 0 0 0-.068.589c.139.184.397.22.581.085.123.18.238.366.347.556l-4.402 2.243-1.325 1.004a1.628 1.628 0 0 0-.16-.209l1.302-1.035 3.281-3.722-3.679 3.319-1.023 1.318a1.679 1.679 0 0 0-.206-.161l.993-1.34 2.217-4.453c.189.111.374.228.554.354zm-1.675-.44a.419.419 0 0 0 .546-.222c.196.095.387.198.574.308l-2.704 4.169-.651 1.54a1.66 1.66 0 0 0-.241-.102l.616-1.554 1.002-4.883c.212.057.421.122.626.196a.429.429 0 0 0 .232.548zm-3.993-.534a.426.426 0 0 0 .364-.465c.214-.017.43-.028.649-.028.221 0 .439.011.655.029a.426.426 0 0 0 .364.466.423.423 0 0 0 .471-.355c.214.04.426.088.634.144l-1.545 4.735-.235 1.657a1.698 1.698 0 0 0-.259-.033l.197-1.664-.281-4.979-.281 4.979.197 1.664a1.698 1.698 0 0 0-.259.033l-.235-1.657-1.546-4.736a8.02 8.02 0 0 1 .64-.145.42.42 0 0 0 .47.355zm-2.509.309a.42.42 0 0 0 .547.222.427.427 0 0 0 .231-.547c.203-.073.41-.138.621-.194l1.002 4.883.616 1.554a1.556 1.556 0 0 0-.241.102l-.651-1.54-2.704-4.169c.188-.111.381-.215.579-.311zm-3.232 2.787a.417.417 0 0 0 .581-.085.43.43 0 0 0-.068-.589 8.4 8.4 0 0 1 .439-.484c.155-.156.317-.305.483-.448.144.178.401.21.583.069a.43.43 0 0 0 .084-.588c.178-.124.362-.241.549-.351l2.217 4.453.993 1.34a1.606 1.606 0 0 0-.206.161l-1.023-1.318-3.679-3.319 3.281 3.722 1.302 1.035a1.724 1.724 0 0 0-.16.209l-1.325-1.004-4.402-2.243c.111-.191.227-.378.351-.56zm-.435 1.694a.429.429 0 0 0-.219-.553c.094-.198.196-.391.304-.581l4.121 2.735 1.522.659a1.691 1.691 0 0 0-.101.244l-1.536-.623-4.827-1.014c.056-.215.121-.426.194-.634a.42.42 0 0 0 .542-.233zm-.877 1.509c.039-.217.087-.431.142-.641l4.681 1.563 1.638.238a1.617 1.617 0 0 0-.032.262l-1.645-.2-4.922.285 4.922.284 1.645-.2c.004.089.014.177.032.262l-1.638.238-4.681 1.563a8.182 8.182 0 0 1-.143-.647.425.425 0 0 0 .351-.476.422.422 0 0 0-.46-.368 8.385 8.385 0 0 1-.028-.657c0-.223.011-.444.028-.663a.422.422 0 0 0 .46-.368.423.423 0 0 0-.35-.475z"/><path style="fill:#ef8c3a" d="M61.83 20.404H2.164C6.807 8.465 18.415 0 32 0c13.58 0 25.187 8.465 29.83 20.404z"/><path style="fill:#249b13" d="M61.882 43.456C57.28 55.471 45.632 64 32 64 18.362 64 6.72 55.471 2.112 43.456h59.77z"/></svg>