<!--<?xml version="1.0" encoding="iso-8859-1"?>-->
<!--&lt;!&ndash; Generator: Adobe Illustrator 19.0.0, SVG Export Plug-In . SVG Version: 6.00 Build 0)  &ndash;&gt;-->
<!--<svg version="1.1" id="Capa_1" xmlns="http://www.w3.org/2000/svg" xmlns:xlink="http://www.w3.org/1999/xlink" x="0px" y="0px"-->
<!--	 viewBox="0 0 512 512" style="enable-background:new 0 0 512 512;" xml:space="preserve">-->
<!--<g>-->
<!--	<g>-->
<!--		<polygon points="448,224 448,160 416,160 416,224 352,224 352,256 416,256 416,320 448,320 448,256 512,256 512,224 		"/>-->
<!--	</g>-->
<!--</g>-->
<!--<g>-->
<!--	<g>-->
<!--		<path d="M160,224v64h90.528c-13.216,37.248-48.8,64-90.528,64c-52.928,0-96-43.072-96-96c0-52.928,43.072-96,96-96-->
<!--			c22.944,0,45.024,8.224,62.176,23.168l42.048-48.256C235.424,109.824,198.432,96,160,96C71.776,96,0,167.776,0,256-->
<!--			s71.776,160,160,160s160-71.776,160-160v-32H160z"/>-->
<!--	</g>-->
<!--</g>-->
<!--<g>-->
<!--</g>-->
<!--<g>-->
<!--</g>-->
<!--<g>-->
<!--</g>-->
<!--<g>-->
<!--</g>-->
<!--<g>-->
<!--</g>-->
<!--<g>-->
<!--</g>-->
<!--<g>-->
<!--</g>-->
<!--<g>-->
<!--</g>-->
<!--<g>-->
<!--</g>-->
<!--<g>-->
<!--</g>-->
<!--<g>-->
<!--</g>-->
<!--<g>-->
<!--</g>-->
<!--<g>-->
<!--</g>-->
<!--<g>-->
<!--</g>-->
<!--<g>-->
<!--</g>-->
<!--</svg>-->

<svg xmlns="http://www.w3.org/2000/svg" viewBox="0 0 25 25" width="100px" height="100px"><path d="M21.384,17.752a2.108,2.108,0,0,1-.522,3.359,7.543,7.543,0,0,1-5.476.642C10.5,20.523,3.477,13.5,2.247,8.614a7.543,7.543,0,0,1,.642-5.476,2.108,2.108,0,0,1,3.359-.522L8.333,4.7a2.094,2.094,0,0,1,.445,2.328A3.877,3.877,0,0,1,8,8.2c-2.384,2.384,5.417,10.185,7.8,7.8a3.877,3.877,0,0,1,1.173-.781,2.092,2.092,0,0,1,2.328.445Z"/></svg>